<svg width="700" height="332" viewBox="0 0 700 332" fill="none" xmlns="http://www.w3.org/2000/svg">
<g clip-path="url(#clip0_13554_42365)">
<rect width="700" height="332" rx="20" fill="#FCDFB9"/>
<path d="M284.884 185.745C286.172 187.309 287.567 188.413 289.07 189.057C290.603 189.701 292.213 190.023 293.9 190.023C295.648 190.023 297.212 189.716 298.592 189.103C300.002 188.459 301.198 187.478 302.18 186.159C303.161 184.81 303.912 183.108 304.434 181.053C304.955 178.968 305.216 176.484 305.216 173.601C305.216 168.418 304.357 164.677 302.64 162.377C300.922 160.046 298.454 158.881 295.234 158.881C293.056 158.881 291.155 159.387 289.53 160.399C287.904 161.38 286.356 162.776 284.884 164.585V185.745ZM284.884 156.581C286.785 154.588 288.886 153.008 291.186 151.843C293.516 150.647 296.169 150.049 299.144 150.049C301.873 150.049 304.326 150.586 306.504 151.659C308.712 152.732 310.582 154.281 312.116 156.305C313.68 158.298 314.876 160.721 315.704 163.573C316.532 166.425 316.946 169.63 316.946 173.187C316.946 177.02 316.47 180.501 315.52 183.629C314.569 186.757 313.204 189.44 311.426 191.679C309.678 193.887 307.562 195.604 305.078 196.831C302.594 198.058 299.834 198.671 296.798 198.671C295.326 198.671 293.992 198.518 292.796 198.211C291.6 197.935 290.496 197.536 289.484 197.015C288.472 196.494 287.536 195.865 286.678 195.129C285.85 194.362 285.052 193.519 284.286 192.599L283.78 195.773C283.596 196.57 283.274 197.138 282.814 197.475C282.384 197.812 281.786 197.981 281.02 197.981H273.522V129.625H284.884V156.581Z" fill="black"/>
<path d="M356.119 168.968C356.119 167.497 355.904 166.117 355.475 164.828C355.076 163.51 354.463 162.36 353.635 161.378C352.807 160.397 351.749 159.631 350.461 159.079C349.203 158.496 347.732 158.204 346.045 158.204C342.764 158.204 340.172 159.14 338.271 161.011C336.4 162.881 335.204 165.534 334.683 168.968H356.119ZM334.453 175.822C334.637 178.245 335.066 180.346 335.741 182.125C336.416 183.872 337.305 185.329 338.409 186.494C339.513 187.629 340.816 188.488 342.319 189.07C343.852 189.622 345.539 189.898 347.379 189.898C349.219 189.898 350.798 189.684 352.117 189.255C353.466 188.825 354.632 188.35 355.613 187.828C356.625 187.307 357.499 186.832 358.235 186.403C359.001 185.973 359.738 185.758 360.443 185.758C361.394 185.758 362.099 186.111 362.559 186.817L365.825 190.957C364.568 192.428 363.157 193.671 361.593 194.683C360.029 195.664 358.388 196.461 356.671 197.074C354.984 197.657 353.252 198.071 351.473 198.316C349.725 198.562 348.023 198.685 346.367 198.685C343.086 198.685 340.034 198.148 337.213 197.074C334.392 195.97 331.938 194.361 329.853 192.244C327.768 190.098 326.127 187.46 324.931 184.333C323.735 181.174 323.137 177.524 323.137 173.384C323.137 170.164 323.658 167.144 324.701 164.323C325.743 161.47 327.231 159.002 329.163 156.916C331.125 154.801 333.502 153.129 336.293 151.903C339.114 150.676 342.288 150.062 345.815 150.062C348.789 150.062 351.534 150.538 354.049 151.489C356.564 152.439 358.725 153.835 360.535 155.674C362.344 157.484 363.755 159.723 364.767 162.391C365.81 165.028 366.331 168.049 366.331 171.452C366.331 173.17 366.147 174.335 365.779 174.949C365.411 175.531 364.706 175.822 363.663 175.822H334.453Z" fill="black"/>
<path d="M399.773 177.844C396.492 177.997 393.732 178.288 391.493 178.718C389.254 179.116 387.46 179.638 386.111 180.282C384.762 180.926 383.796 181.677 383.213 182.536C382.63 183.394 382.339 184.33 382.339 185.342C382.339 187.335 382.922 188.761 384.087 189.62C385.283 190.479 386.832 190.908 388.733 190.908C391.064 190.908 393.073 190.494 394.759 189.666C396.476 188.807 398.148 187.519 399.773 185.802V177.844ZM373.737 157.374C379.165 152.406 385.697 149.922 393.333 149.922C396.093 149.922 398.562 150.382 400.739 151.302C402.916 152.191 404.756 153.448 406.259 155.074C407.762 156.669 408.896 158.585 409.663 160.824C410.461 163.063 410.859 165.516 410.859 168.184V197.992H405.707C404.634 197.992 403.806 197.839 403.223 197.532C402.64 197.194 402.181 196.535 401.843 195.554L400.831 192.15C399.635 193.223 398.47 194.174 397.335 195.002C396.2 195.799 395.02 196.474 393.793 197.026C392.566 197.578 391.248 197.992 389.837 198.268C388.457 198.574 386.924 198.728 385.237 198.728C383.244 198.728 381.404 198.467 379.717 197.946C378.03 197.394 376.574 196.581 375.347 195.508C374.12 194.434 373.17 193.101 372.495 191.506C371.82 189.911 371.483 188.056 371.483 185.94C371.483 184.744 371.682 183.563 372.081 182.398C372.48 181.202 373.124 180.067 374.013 178.994C374.933 177.921 376.114 176.908 377.555 175.958C378.996 175.007 380.76 174.179 382.845 173.474C384.961 172.768 387.415 172.201 390.205 171.772C392.996 171.312 396.185 171.036 399.773 170.944V168.184C399.773 165.025 399.098 162.694 397.749 161.192C396.4 159.658 394.453 158.892 391.907 158.892C390.067 158.892 388.534 159.106 387.307 159.536C386.111 159.965 385.053 160.456 384.133 161.008C383.213 161.529 382.37 162.004 381.603 162.434C380.867 162.863 380.039 163.078 379.119 163.078C378.322 163.078 377.647 162.879 377.095 162.48C376.543 162.051 376.098 161.56 375.761 161.008L373.737 157.374Z" fill="black"/>
<path d="M432.191 156.595C433.141 155.644 434.137 154.77 435.179 153.973C436.254 153.145 437.373 152.455 438.539 151.903C439.734 151.32 441.006 150.875 442.355 150.568C443.706 150.231 445.177 150.062 446.771 150.062C449.349 150.062 451.633 150.507 453.625 151.396C455.62 152.255 457.276 153.482 458.593 155.077C459.942 156.64 460.955 158.527 461.629 160.735C462.335 162.912 462.688 165.319 462.688 167.956V197.995H451.326V167.956C451.326 165.074 450.666 162.85 449.349 161.287C448.029 159.692 446.02 158.895 443.322 158.895C441.359 158.895 439.518 159.339 437.802 160.228C436.084 161.118 434.459 162.329 432.925 163.862V197.995H421.564V150.799H428.509C429.983 150.799 430.948 151.489 431.409 152.869L432.191 156.595Z" fill="black"/>
<path d="M502.301 159.999C501.994 160.489 501.672 160.842 501.334 161.056C500.998 161.24 500.568 161.332 500.048 161.332C499.496 161.332 498.896 161.179 498.252 160.873C497.64 160.566 496.918 160.228 496.09 159.86C495.262 159.462 494.312 159.109 493.239 158.803C492.195 158.496 490.954 158.342 489.512 158.342C487.275 158.342 485.511 158.818 484.222 159.769C482.965 160.719 482.336 161.961 482.336 163.495C482.336 164.506 482.66 165.365 483.303 166.07C483.977 166.745 484.851 167.343 485.924 167.865C487.028 168.386 488.271 168.861 489.651 169.291C491.031 169.689 492.425 170.134 493.836 170.624C495.279 171.115 496.688 171.682 498.068 172.327C499.448 172.94 500.676 173.737 501.749 174.718C502.853 175.669 503.727 176.819 504.37 178.168C505.045 179.518 505.383 181.143 505.383 183.044C505.383 185.314 504.968 187.414 504.14 189.346C503.343 191.248 502.148 192.904 500.552 194.314C498.958 195.694 496.981 196.783 494.619 197.581C492.289 198.347 489.589 198.73 486.524 198.73C484.897 198.73 483.303 198.577 481.738 198.271C480.204 197.995 478.719 197.596 477.276 197.074C475.865 196.553 474.548 195.94 473.321 195.235C472.124 194.529 471.068 193.762 470.146 192.934L472.769 188.611C473.105 188.089 473.504 187.69 473.964 187.414C474.425 187.138 475.008 187 475.712 187C476.417 187 477.077 187.2 477.692 187.598C478.335 187.997 479.072 188.426 479.9 188.887C480.728 189.346 481.692 189.776 482.796 190.174C483.932 190.573 485.357 190.773 487.076 190.773C488.424 190.773 489.574 190.619 490.524 190.312C491.506 189.975 492.303 189.546 492.917 189.025C493.561 188.503 494.021 187.905 494.297 187.231C494.604 186.525 494.756 185.804 494.756 185.068C494.756 183.964 494.42 183.06 493.745 182.355C493.1 181.649 492.226 181.036 491.122 180.514C490.049 179.993 488.808 179.533 487.397 179.134C486.017 178.705 484.592 178.245 483.118 177.754C481.678 177.264 480.252 176.696 478.841 176.053C477.461 175.378 476.218 174.535 475.114 173.522C474.041 172.51 473.168 171.268 472.493 169.797C471.848 168.325 471.526 166.546 471.526 164.461C471.526 162.529 471.91 160.688 472.676 158.941C473.444 157.192 474.562 155.674 476.036 154.387C477.538 153.068 479.393 152.025 481.601 151.258C483.84 150.461 486.416 150.062 489.329 150.062C492.579 150.062 495.538 150.599 498.207 151.672C500.876 152.746 503.098 154.156 504.877 155.905L502.301 159.999Z" fill="black"/>
<path d="M219.973 203.302C240.818 203.302 257.717 186.403 257.717 165.558C257.717 157.56 255.229 150.143 250.986 144.039C249.81 147.044 248.127 150.193 245.309 153.386C240.52 158.813 232.696 164.119 219.2 169.617C206.238 174.897 200.737 179.705 197.992 183.741C196.612 185.769 195.829 187.744 195.186 189.793C195.003 190.376 194.816 191.025 194.62 191.707C194.486 192.172 194.348 192.652 194.204 193.137C200.949 199.442 210.011 203.302 219.973 203.302Z" fill="black"/>
<path d="M189.086 187.252C189.818 185.023 190.818 182.583 192.546 180.042C196.317 174.498 203.155 169.043 216.723 163.517C229.757 158.207 236.533 153.383 240.372 149.032C243.541 145.441 244.877 142.004 246.003 138.227C239.232 131.783 230.071 127.828 219.987 127.828C199.141 127.828 182.243 144.727 182.243 165.572C182.243 173.64 184.774 181.117 189.086 187.252Z" fill="black"/>
<g style="mix-blend-mode:multiply">
<path fill-rule="evenodd" clip-rule="evenodd" d="M281.402 460.659C245.175 475.461 196.696 485.042 126.761 484.191C57.5767 483.349 8.87571 468.943 -27.2089 448.692C-63.3654 428.4 -88.0197 401.591 -108.16 374.128C-116.938 362.159 -124.728 350.255 -132.36 338.594C-133.545 336.782 -134.726 334.977 -135.907 333.178C-144.544 320.02 -153.239 307.058 -162.629 295.886C-181.763 273.12 -205.724 255.614 -241.801 257.355C-301.46 260.234 -337.236 294.732 -357.398 331.418C-377.275 367.589 -383.119 407.516 -383.288 427.372L-350.176 427.654C-350.039 411.546 -344.963 376.717 -328.01 345.868C-311.34 315.536 -284.374 290.752 -240.081 288.615C-219.01 287.598 -204.272 296.634 -188.548 315.342C-180.509 324.906 -172.736 336.413 -164.04 349.662C-162.897 351.403 -161.739 353.172 -160.566 354.966C-152.959 366.592 -144.678 379.248 -135.368 391.944C-113.73 421.448 -85.845 452.17 -44.0941 475.601C-2.27122 499.074 52.3029 514.587 126.366 515.488C199.68 516.381 253.023 506.366 294.565 489.391C336.233 472.366 364.877 448.801 389.275 424.434C398.575 415.146 407.173 405.901 415.569 396.873C451.6 358.133 483.907 323.396 552.002 306.405C618.183 289.892 667.553 307.195 703.16 335.179C739.488 363.73 761.812 403.797 770.993 431.701L802.611 422.431C791.984 390.132 766.632 344.376 724.315 311.119C681.276 277.293 621.031 256.802 543.522 276.141C464.88 295.764 425.345 338.528 388.837 378.017C380.943 386.556 373.191 394.941 365.215 402.907C342.577 425.516 317.503 445.908 281.402 460.659Z" fill="#FFCB83"/>
</g>
<g style="mix-blend-mode:multiply">
<path fill-rule="evenodd" clip-rule="evenodd" d="M-105.408 28.0848C-122.096 26.2528 -144.053 27.2905 -175.051 34.0793C-205.617 40.7734 -225.801 50.2977 -239.811 60.4251C-253.735 70.4907 -262.234 81.6338 -268.847 92.6672C-271.781 97.5615 -274.288 102.332 -276.856 107.217C-277.256 107.979 -277.658 108.744 -278.063 109.512C-280.964 115.012 -284.103 120.837 -287.781 126.124C-295.595 137.357 -306.205 146.624 -323.602 149.565C-351.622 154.301 -372.114 145.039 -385.704 132.021C-398.667 119.602 -405.002 104.181 -406.869 95.5383L-380.108 89.7595C-379.207 93.9296 -375.188 104.181 -366.764 112.251C-358.967 119.72 -347.041 125.76 -328.165 122.57C-319.782 121.153 -315.011 117.324 -310.256 110.489C-307.649 106.743 -305.207 102.291 -302.28 96.7412C-301.904 96.0289 -301.521 95.2993 -301.13 94.5544C-298.58 89.7007 -295.69 84.1974 -292.33 78.5919C-284.41 65.3784 -273.599 51.0674 -255.85 38.2372C-238.186 25.4687 -214.333 14.6553 -180.908 7.33516C-147.916 0.109702 -122.865 -1.37399 -102.42 0.870344C-81.7773 3.13645 -66.5465 9.12873 -53.2994 15.8238C-48.2282 18.3868 -43.5732 20.9534 -39.092 23.4241C-20.3627 33.7507 -4.67061 42.4026 25.6712 42.1167C84.5343 41.5621 105.861 1.00416 109.418 -17.6L136.309 -12.4589C130.938 15.6343 100.94 68.7867 25.9292 69.4935C-12.1114 69.8519 -34.2847 57.5115 -53.6439 46.7372C-57.7299 44.4631 -61.6906 42.2588 -65.6487 40.2584C-76.8903 34.5769 -88.9174 29.8951 -105.408 28.0848Z" fill="#FFCB83"/>
</g>
</g>
<defs>
<clipPath id="clip0_13554_42365">
<rect width="700" height="332" rx="20" fill="white"/>
</clipPath>
</defs>
</svg>
