<?xml version="1.0" encoding="UTF-8"?>
<svg version="1.1" xmlns="http://www.w3.org/2000/svg" width="512" height="512">
<path d="M0 0 C1.65334312 -0.00573832 1.65334312 -0.00573832 3.34008712 -0.01159257 C6.9991287 -0.02183446 10.65801078 -0.01794724 14.31706238 -0.01396179 C16.95456453 -0.01831315 19.59205536 -0.02343403 22.22955322 -0.02944946 C28.62982437 -0.04214694 35.03005346 -0.04399635 41.43033508 -0.0416492 C46.63730461 -0.03986025 51.84426146 -0.041628 57.05122948 -0.04587364 C57.79462029 -0.04646883 58.5380111 -0.04706402 59.30392891 -0.04767724 C60.81453453 -0.0488891 62.32514015 -0.05010324 63.83574577 -0.05131962 C77.97709218 -0.06217617 92.11841469 -0.06004167 106.25976243 -0.05393478 C119.16901606 -0.04876779 132.07819418 -0.06001864 144.98743287 -0.07903299 C158.27344813 -0.09845082 171.55942773 -0.10666046 184.84545726 -0.10290974 C192.29218735 -0.10100361 199.73885322 -0.10342759 207.18557167 -0.11762428 C213.52545515 -0.12958952 219.86523485 -0.13088579 226.20511989 -0.11883412 C229.43338889 -0.11298111 232.66143127 -0.11340055 235.88969421 -0.12383652 C259.01675886 -0.1931746 279.85293558 1.2148638 297.59513855 17.94819641 C311.05487225 32.26470988 315.73989403 48.56400892 315.66833496 67.81546021 C315.67216051 68.9257072 315.67598606 70.03595419 315.67992753 71.17984504 C315.69018378 74.87196516 315.68627941 78.56392763 315.68229675 82.25605774 C315.68664732 84.91473906 315.69176779 87.57340912 315.69778442 90.23208618 C315.71049026 96.68763839 315.71233025 103.14314892 315.70998416 109.59871153 C315.70819613 114.85004992 315.70996101 120.10137574 315.7142086 125.35271263 C315.71480379 126.10207838 315.71539898 126.85144413 315.71601221 127.62351793 C315.71722405 129.14620482 315.71843818 130.6688917 315.71965458 132.19157859 C315.73051438 146.45020589 315.7283751 160.7088095 315.72226974 174.96743812 C315.71710264 187.98736159 315.72835332 201.00721018 315.74736796 214.02711884 C315.76678001 227.42270875 315.77499642 240.81826331 315.7712447 254.21386737 C315.76933768 261.72373748 315.77177137 269.2335439 315.78595924 276.74340248 C315.79791708 283.13713728 315.79922893 289.53076918 315.78716908 295.92450551 C315.7813109 299.18099682 315.78174615 302.4372631 315.79217148 305.69374847 C315.85999709 328.53568252 314.21221741 348.96179263 297.72013855 366.44819641 C283.08641271 380.20615873 266.46034321 384.59524131 246.8152771 384.52139282 C245.71304835 384.52521837 244.6108196 384.52904392 243.47518998 384.53298539 C239.8161484 384.54322728 236.15726632 384.53934006 232.49821472 384.53535461 C229.86071257 384.53970598 227.22322174 384.54482685 224.58572388 384.55084229 C218.18545273 384.56353976 211.78522364 384.56538918 205.38494202 384.56304202 C200.17797249 384.56125307 194.97101564 384.56302083 189.76404762 384.56726646 C189.02065681 384.56786165 188.277266 384.56845684 187.51134819 384.56907007 C186.00074257 384.57028192 184.49013695 384.57149606 182.97953133 384.57271244 C168.83818492 384.58356899 154.69686241 384.58143449 140.55551467 384.5753276 C127.64626104 384.57016062 114.73708292 384.58141147 101.82784422 384.60042582 C88.54182897 384.61984364 75.25584937 384.62805328 61.96981984 384.62430257 C54.52308974 384.62239643 47.07642388 384.62482042 39.62970543 384.63901711 C33.28982195 384.65098234 26.95004225 384.65227861 20.61015721 384.64022694 C17.38188821 384.63437393 14.15384583 384.63479337 10.92558289 384.64522934 C-21.6604299 384.74292663 -21.6604299 384.74292663 -34.77986145 377.76069641 C-35.43857239 377.41812805 -36.09728333 377.07555969 -36.7759552 376.72261047 C-50.50694318 369.21181327 -60.60909613 357.10092343 -65.80329895 342.31929016 C-68.01245798 333.75606483 -68.88587604 325.53496905 -68.85305786 316.70593262 C-68.85688341 315.59568562 -68.86070896 314.48543863 -68.86465043 313.34154779 C-68.87490669 309.64942766 -68.87100232 305.9574652 -68.86701965 302.26533508 C-68.87137022 299.60665376 -68.87649069 296.9479837 -68.88250732 294.28930664 C-68.89521316 287.83375443 -68.89705315 281.3782439 -68.89470706 274.92268129 C-68.89291903 269.6713429 -68.89468391 264.42001709 -68.8989315 259.16868019 C-68.89952669 258.41931444 -68.90012188 257.6699487 -68.90073511 256.8978749 C-68.90194695 255.37518801 -68.90316108 253.85250112 -68.90437748 252.32981423 C-68.91523728 238.07118693 -68.913098 223.81258332 -68.90699264 209.5539547 C-68.90182554 196.53403124 -68.91307622 183.51418264 -68.93209086 170.49427398 C-68.95150291 157.09868407 -68.95971932 143.70312951 -68.95596761 130.30752546 C-68.95406058 122.79765534 -68.95649427 115.28784892 -68.97068214 107.77799034 C-68.98263998 101.38425554 -68.98395183 94.99062364 -68.97189198 88.59688731 C-68.9660338 85.34039601 -68.96646905 82.08412972 -68.97689438 78.82764435 C-69.04487144 55.93470408 -67.37395912 35.5247046 -50.84236145 18.01069641 C-36.51404214 4.53656537 -19.21048728 -0.07221485 0 0 Z M-20.59236145 50.26069641 C-26.35183561 58.32748285 -25.74178868 68.23142723 -25.72607422 77.75320435 C-25.72833978 78.77331547 -25.73060533 79.79342659 -25.73293954 80.84445018 C-25.73924106 84.24338315 -25.73845266 87.64227585 -25.73762512 91.04121399 C-25.740619 93.48609468 -25.74402205 95.93097489 -25.74780273 98.37585449 C-25.75570806 104.31631015 -25.75885635 110.25675646 -25.75941511 116.19721631 C-25.7598915 121.02908931 -25.76195235 125.86095906 -25.76511574 130.69283104 C-25.77391465 144.4132535 -25.77853625 158.13366817 -25.77778526 171.85409347 C-25.77774531 172.59260105 -25.77770535 173.33110864 -25.77766418 174.09199524 C-25.7776233 174.83141169 -25.77758242 175.57082815 -25.7775403 176.33265116 C-25.77713394 188.31292576 -25.78670294 200.29316893 -25.80080255 212.27343444 C-25.81518914 224.59543476 -25.8220715 236.91741977 -25.82120878 249.2394287 C-25.82087762 256.14898012 -25.82358908 263.05849855 -25.83438683 269.96804237 C-25.84447992 276.46793863 -25.84413322 282.96778334 -25.83687019 289.46768379 C-25.83582688 291.84762423 -25.83817216 294.22756903 -25.84423065 296.60750198 C-27.05515641 316.7547293 -27.05515641 316.7547293 -20.1353302 334.86225891 C-12.33045876 341.93604113 -2.05340916 341.41057814 7.86254883 341.39440918 C8.8906782 341.39667474 9.91880757 341.39894029 10.97809237 341.4012745 C14.41010434 341.40758538 17.84207652 341.40678701 21.27409363 341.40596008 C23.74015351 341.40895338 26.20621293 341.4123563 28.67227173 341.4161377 C34.66801075 341.42404809 40.66373424 341.42719158 46.65947703 341.42775007 C51.53571893 341.4282262 56.4119576 341.43028577 61.28819847 341.4334507 C75.13026979 341.44225132 88.97233337 341.44687097 102.81440751 341.44612022 C103.93237206 341.44606029 103.93237206 341.44606029 105.07292175 341.44599915 C105.81914725 341.44595826 106.56537274 341.44591738 107.33421113 341.44587526 C119.4251557 341.4454689 131.51606912 341.45503769 143.60700468 341.46913751 C156.0385797 341.48351956 168.47013954 341.4904067 180.90172309 341.48954374 C187.87441461 341.48921241 194.84707346 341.49193114 201.81975746 341.50272179 C208.37873392 341.51280763 214.93765332 341.51247279 221.49663734 341.50520515 C223.89957276 341.50416099 226.3025125 341.50651218 228.70544052 341.51256561 C231.99429989 341.52031224 235.28292286 341.51562298 238.57177734 341.50793457 C239.98630848 341.51564992 239.98630848 341.51564992 241.429416 341.52352113 C249.80302125 341.48048446 259.22724592 341.33310475 265.9740448 335.79975891 C273.34573426 327.88573808 272.55808924 316.91010768 272.54135132 306.76818848 C272.54361687 305.74807735 272.54588243 304.72796623 272.54821664 303.67694265 C272.55451816 300.27800968 272.55372976 296.87911698 272.55290222 293.48017883 C272.55589609 291.03529814 272.55929915 288.59041793 272.56307983 286.14553833 C272.57098516 280.20508267 272.57413345 274.26463636 272.57469221 268.32417651 C272.5751686 263.49230351 272.57722945 258.66043376 272.58039284 253.82856178 C272.58919175 240.10813932 272.59381335 226.38772466 272.59306236 212.66729935 C272.59302241 211.92879177 272.59298245 211.19028418 272.59294128 210.42939758 C272.5929004 209.68998113 272.59285952 208.95056467 272.5928174 208.18874166 C272.59241104 196.20846706 272.60198004 184.2282239 272.61607965 172.24795838 C272.63046624 159.92595806 272.6373486 147.60397305 272.63648587 135.28196412 C272.63615472 128.37241271 272.63886618 121.46289427 272.64966393 114.55335045 C272.65975702 108.05345419 272.65941032 101.55360948 272.65214729 95.05370903 C272.65110398 92.6737686 272.65344925 90.29382379 272.65950775 87.91389084 C273.87043351 67.76666352 273.87043351 67.76666352 266.9506073 49.65913391 C259.14573586 42.5853517 248.86868626 43.11081468 238.95272827 43.12698364 C237.41053422 43.12358531 237.41053422 43.12358531 235.83718473 43.12011832 C232.40517276 43.11380744 228.97320058 43.11460581 225.54118347 43.11543274 C223.07512359 43.11243945 220.60906417 43.10903652 218.14300537 43.10525513 C212.14726635 43.09734473 206.15154286 43.09420124 200.15580007 43.09364275 C195.27955817 43.09316662 190.4033195 43.09110705 185.52707863 43.08794212 C171.68500731 43.0791415 157.84294373 43.07452186 144.00086959 43.0752726 C142.88290504 43.07533253 142.88290504 43.07533253 141.74235535 43.07539368 C140.99612985 43.07543456 140.24990436 43.07547544 139.48106597 43.07551756 C127.3901214 43.07592393 115.29920798 43.06635514 103.20827242 43.05225531 C90.7766974 43.03787327 78.34513756 43.03098612 65.91355401 43.03184909 C58.94086249 43.03218041 51.96820364 43.02946168 44.99551964 43.01867104 C38.43654318 43.00858519 31.87762378 43.00892003 25.31863976 43.01618767 C22.91570434 43.01723183 20.5127646 43.01488065 18.10983658 43.00882721 C14.82097721 43.00108058 11.53235424 43.00576984 8.24349976 43.01345825 C6.82896862 43.00574291 6.82896862 43.00574291 5.3858611 42.9978717 C-3.70147164 43.04457661 -14.00776875 43.19167864 -20.59236145 50.26069641 Z " fill="#000000" transform="translate(132.5923614501953,63.73930358886719)"/>
<path d="M0 0 C2.64313783 1.994413 4.96959086 4.22722456 7.3125 6.5625 C8.61798185 7.822141 9.92397754 9.08124967 11.23046875 10.33984375 C11.86774902 10.96101074 12.5050293 11.58217773 13.16162109 12.22216797 C15.76905165 14.74372299 18.44212157 17.1837583 21.125 19.625 C26.8866282 24.89299472 32.62488428 30.18585239 38.35888672 35.48388672 C40.53175254 37.49125012 42.7054102 39.49775429 44.87939453 41.50390625 C45.95503948 42.496909 47.03023901 43.49039446 48.10498047 44.484375 C50.91555195 47.08268312 53.73437934 49.67117393 56.56640625 52.24609375 C57.44425781 53.04756836 57.44425781 53.04756836 58.33984375 53.86523438 C59.45302145 54.88122989 60.56873849 55.89445325 61.6875 56.90429688 C66.80263874 61.58341233 71.54141296 66.08028759 72.37109375 73.171875 C72.51648086 81.00567448 72.2080387 86.04092025 67 92 C66.10474609 93.05960938 66.10474609 93.05960938 65.19140625 94.140625 C62.84982183 96.81419209 60.43413552 99.41123869 58 102 C56.83450274 103.24596966 55.66914768 104.49207233 54.50390625 105.73828125 C51.92784543 108.4901573 49.34767025 111.23811438 46.765625 113.984375 C43.47034789 117.49289552 40.19729115 121.02101889 36.9375 124.5625 C32.0574872 129.86364318 27.14885292 135.13732806 22.22387695 140.39672852 C19.37205189 143.44523117 16.53320838 146.50355308 13.7265625 149.59375 C-2.40402462 167.34040246 -2.40402462 167.34040246 -12.75 168.375 C-18.66045491 168.18251392 -24.40891822 166.24986936 -28.8984375 162.3515625 C-34.25523184 156.36763126 -35.47975753 150.94232777 -35.3046875 142.99609375 C-34.54940462 135.5691454 -30.63079056 131.18060654 -25.29296875 126.25 C-22.6665076 123.67275703 -20.29758452 120.92993156 -17.8894043 118.14990234 C-14.78681096 114.61954482 -11.54708994 111.22154686 -8.3125 107.8125 C-6.90449771 106.32203975 -5.49695014 104.83114983 -4.08984375 103.33984375 C-3.40003418 102.60878418 -2.71022461 101.87772461 -1.99951172 101.12451172 C2.70923117 96.12140053 7.36666069 91.07289405 12 86 C12.69480469 85.2575 13.38960938 84.515 14.10546875 83.75 C15.96193808 81.76610306 15.96193808 81.76610306 18 79 C16.89066397 75.6719919 16.05210689 74.95214152 13.421875 72.765625 C9.23942751 69.21631738 5.23538349 65.51781913 1.25 61.75 C-3.55887767 57.22281391 -8.37757661 52.70877325 -13.25 48.25 C-14.19359375 47.38246094 -15.1371875 46.51492187 -16.109375 45.62109375 C-18.14451626 43.77571566 -20.19052613 41.95902442 -22.265625 40.16015625 C-34.29483717 29.64896742 -34.29483717 29.64896742 -35.359375 21.12109375 C-35.65423468 14.576847 -34.98100924 9.31625457 -31 4 C-21.85455789 -5.35329307 -11.11969835 -6.15339193 0 0 Z " fill="#000000" transform="translate(312,174)"/>
<path d="M0 0 C4.66634793 4.05184944 7.59854379 8.61563081 8.3359375 14.83203125 C8.45231165 23.71137899 6.94810625 29.15164411 0.75 35.5625 C-1.70678794 37.84765262 -4.21305116 40.06625726 -6.75 42.26171875 C-10.8397565 45.83247779 -14.80512572 49.52063909 -18.75 53.25 C-23.68817261 57.89708033 -28.63210999 62.53667857 -33.625 67.125 C-34.52476562 67.95257813 -35.42453125 68.78015625 -36.3515625 69.6328125 C-39.18073297 72.16154009 -42.0718417 74.58706017 -45 77 C-43.57636157 81.71957709 -40.80956955 84.51329662 -37.3125 87.8125 C-33.26086821 91.68819887 -29.47913866 95.68170493 -25.81469727 99.92700195 C-22.74252119 103.43646611 -19.52180885 106.80387484 -16.3125 110.1875 C-14.9073669 111.67951312 -13.50242089 113.17170246 -12.09765625 114.6640625 C-9.55617567 117.35937423 -7.0021219 120.04141207 -4.43359375 122.7109375 C8.0397672 135.7598201 8.0397672 135.7598201 8.5 146 C8.22603202 153.24188693 6.28335854 157.66474695 1.25 162.8125 C-4.72489755 166.83406566 -10.67440626 169.14637154 -18 168 C-29.53267661 165.49098257 -37.82802757 153.52352053 -45.1875 145.05322266 C-48.27039011 141.5608862 -51.4813819 138.19137 -54.6875 134.8125 C-60.01086223 129.17996808 -65.31086495 123.52899555 -70.55249023 117.8203125 C-73.20597013 114.93329758 -75.87677983 112.0645754 -78.5703125 109.21484375 C-99.61751626 86.92087348 -99.61751626 86.92087348 -99.3671875 73.47265625 C-98.27150953 63.11034016 -88.61159565 56.12756999 -81.19140625 49.67578125 C-77.11801001 46.12896569 -73.17437153 42.46016443 -69.25 38.75 C-63.51587336 33.35141264 -57.74931694 27.99428807 -51.93359375 22.68359375 C-49.29706366 20.27174798 -46.67024998 17.85005785 -44.04833984 15.42236328 C-42.40392635 13.90174864 -40.7548992 12.38626245 -39.10546875 10.87109375 C-37.12663237 9.0508082 -35.17808168 7.2106329 -33.23828125 5.34765625 C-23.10972138 -4.22251441 -12.62552545 -7.22061824 0 0 Z " fill="#000000" transform="translate(227,174)"/>
</svg>
